#!OML:ASF E:\Mandelcareful walks\Project 1\Capture day 1\Session 1\Subject1.ASF
:FULLY-SPECIFIED
:DEGREES
93
root -25.3025 15.1915 2.03712 -167.154 12.4397 177.72
lowerback 37.3069 2.14275 -6.34411
upperback 5.74807 1.8554 -2.46925
thorax -12.0458 1.83426 -0.288154
lowerneck -26.1838 3.17869 2.65264
upperneck 14.3699 4.63516 -5.84832
head 8.96546 1.67211 -1.7562
rclavicle 2.127e-014 4.31363e-014
rhumerus -25.3917 3.69088 -82.0679
rradius 57.3808
rwrist -15.8798
rhand -18.137 -27.4551
rfingers 7.12502
rthumb 8.13814 -57.2784
lclavicle 2.127e-014 4.31363e-014
lhumerus -8.6137 -44.6606 72.8994
lradius 62.3085
lwrist 19.39
lhand -21.5588 -15.8398
lfingers 7.12502
lthumb 4.83479 14.085
rfemur -41.5368 -20.8657 4.78659
rtibia 48.8277
rfoot -12.2911 -3.97906
rtoes -11.6714
lfemur -45.4709 22.0124 -21.1365
ltibia 58.3959
lfoot -18.9838 11.5641
ltoes -21.4182
94
root -25.2949 15.1822 2.02355 -167.016 13.0419 177.999
lowerback 37.025 2.15773 -7.43599
upperback 6.02865 1.58419 -1.76978
thorax -11.6214 1.73867 1.16928
lowerneck -26.5936 3.30833 1.20088
upperneck 14.2505 5.26362 -5.47684
head 8.97114 1.92628 -1.29458
rclavicle -3.22031e-014 4.45278e-014
rhumerus -24.3702 5.14197 -80.9852
rradius 56.7504
rwrist -16.6007
rhand -17.8596 -27.4117
rfingers 7.12502
rthumb 8.40579 -57.2244
lclavicle -3.22031e-014 4.45278e-014
lhumerus -8.30944 -42.3198 72.4441
lradius 62.0617
lwrist 19.3883
lhand -21.4029 -15.7582
lfingers 7.12502
lthumb 4.98537 14.1632
rfemur -41.9122 -20.6962 5.2003
rtibia 48.9254
rfoot -12.4828 -3.70554
rtoes -12.3995
lfemur -45.5064 22.4328 -20.8747
ltibia 58.568
lfoot -19.0847 11.9907
ltoes -22.6258
95
root -25.2892 15.1558 2.01234 -166.74 13.6996 178.035
lowerback 37.0365 2.61514 -7.01834
upperback 5.94259 2.24543 -2.4829
thorax -11.7366 2.03112 -0.0997403
lowerneck -26.7351 2.70008 2.29095
upperneck 14.4165 3.98016 -5.23782
head 9.01709 1.40483 -1.58433
rclavicle 5.1684e-015 2.38542e-014
rhumerus -24.7925 1.9265 -80.8471
rradius 56.3717
rwrist -16.8148
rhand -16.7579 -27.1386
rfingers 7.12502
rthumb 9.46899 -56.9059
lclavicle 5.1684e-015 2.38542e-014
lhumerus -6.44002 -44.4703 69.7946
lradius 62.1223
lwrist 19.8143
lhand -21.6291 -15.0197
lfingers 7.12502
lthumb 4.76689 14.9067
rfemur -42.5308 -20.4678 5.31814
rtibia 49.0306
rfoot -12.487 -3.43128
rtoes -12.1112
lfemur -45.7881 22.875 -21.0523
ltibia 58.6884
lfoot -18.9602 12.6647
ltoes -24.779
96
root -25.2908 15.1533 2.00244 -166.522 14.3012 177.948
lowerback 36.7936 2.53666 -7.81194
upperback 5.89396 1.83872 -2.2051
thorax -11.6904 1.85307 0.793073
lowerneck -26.171 2.63055 1.25253
upperneck 14.0045 4.15028 -4.76477
head 8.75528 1.49655 -1.22962
rclavicle 6.36111e-015 6.75868e-015
rhumerus -24.3448 3.13037 -80.2646
rradius 55.7649
rwrist -17.8331
rhand -16.2951 -27.6016
rfingers 7.12502
rthumb 9.9155 -57.3481
lclavicle 6.36111e-015 6.75868e-015
lhumerus -6.91303 -42.8145 69.5332
lradius 62.0569
lwrist 19.4385
lhand -21.6186 -14.385
lfingers 7.12502
lthumb 4.77708 15.5411
rfemur -43.0839 -20.4784 5.36303
rtibia 49.1158
rfoot -12.4232 -3.04653
rtoes -11.8992
lfemur -45.9556 22.9105 -21.217
ltibia 58.7577
lfoot -18.8759 13.2687
ltoes -25.5863
97
root -25.291 15.1861 1.99106 -166.539 14.7286 177.909
lowerback 36.927 2.55644 -8.28219
upperback 5.87482 1.67813 -2.01779
thorax -11.7515 1.79314 1.30047
lowerneck -25.7883 2.22961 0.48468
upperneck 13.6179 3.7439 -4.17958
head 8.5177 1.34277 -0.967705
rclavicle 1.74931e-014 1.43125e-014
rhumerus -23.9534 3.65263 -79.7148
rradius 55.1561
rwrist -19.1508
rhand -16.6638 -28.1736
rfingers 7.12502
rthumb 9.5597 -57.9367
lclavicle 1.74931e-014 1.43125e-014
lhumerus -6.85156 -41.9185 68.9985
lradius 61.948
lwrist 19.1236
lhand -21.2806 -13.7947
lfingers 7.12502
lthumb 5.10343 16.1239
rfemur -43.1647 -20.5265 5.46437
rtibia 49.0846
rfoot -12.6153 -2.96288
rtoes -13.2604
lfemur -45.5295 22.0126 -20.8809
ltibia 58.6723
lfoot -19.2237 14.143
ltoes -24.4299
